# xmcd
#
# Track frame offsets:
#	150
#	23277
#	50142
#	71532
#	92227
#	121785
#	133402
#	157447
#	192860
#	213195
#	241365
#	268225
#	308868
#
# Disc length: 4499
#
# Revision: 1
# Processed by: cddbd v1.5.1PL0 Copyright (c) Steve Scherf et al.
# Submitted via: EasyCDDAExtractor 4.5.0.2
# Normalized: r0:DSETVAR1
#
DISCID=c011910d
DTITLE=Various Artist - Blues story #21
DYEAR=1998
DGENRE=Blues
TTITLE0=B.B. King - The Good Time Roll
TTITLE1=Jimmy Trackery and the Drivers - You Upset Me Baby
TTITLE2=Popa Chubby - Heart Attack And Vine
TTITLE3=Gary Moore and Albert Collins - Too Tired
TTITLE4=Great White - Since I've Been Loving You
TTITLE5=Fats Domino - Blueberry Hill
TTITLE6=Roy Rogers and Norton Buffalo - Mercury Blues
TTITLE7=Howlin'Wolf - Sitting On The Top Of The World
TTITLE8=Muddy Waters - I Got My Brand On You
TTITLE9=Ray Charles - Makin' Whoopie
TTITLE10=Jimmy Witherspoon - Ain't Nobody's Business
TTITLE11=Duke Robillard - Glamour Girl
TTITLE12=James Cotton - Just to be With You
EXTD=
EXTT0=
EXTT1=
EXTT2=
EXTT3=
EXTT4=
EXTT5=
EXTT6=
EXTT7=
EXTT8=
EXTT9=
EXTT10=
EXTT11=
EXTT12=
PLAYORDER=
